<svg id="Layer_1" data-name="Layer 1" xmlns="http://www.w3.org/2000/svg" viewBox="0 0 288 130"><defs><style>.cls-1{fill:#58595b;}.cls-2{font-size:11px;fill:#fff;}.cls-2,.cls-7{font-family:OpenSans-Semibold, Open Sans;}.cls-2,.cls-8{font-weight:700;}.cls-10,.cls-3,.cls-5,.cls-6{fill:none;stroke:#231f20;stroke-miterlimit:10;}.cls-3,.cls-5,.cls-6{stroke-width:0.5px;}.cls-4,.cls-7{fill:#231f20;}.cls-5{stroke-dasharray:1.53 1.53;}.cls-6{stroke-dasharray:1.53 1.53;}.cls-7{font-size:9px;}.cls-9{font-size:7px;font-family:OpenSans-Light, Open Sans;}.cls-10{stroke-width:0.25px;}</style></defs><title>Framework</title><rect class="cls-1" x="6.44" y="49.13" width="65.33" height="31.8"/><text class="cls-2" transform="translate(19.23 68.57)">Donors</text><rect class="cls-1" x="111.02" y="49.13" width="65.33" height="31.8"/><text class="cls-2" transform="translate(128.37 68.57)">NGOs</text><rect class="cls-1" x="215.6" y="49.13" width="65.33" height="31.8"/><text class="cls-2" transform="translate(235.93 62.54)">Host<tspan x="-12.65" y="12.13">countries</tspan></text><path class="cls-3" d="M36.94,44.26c0-.31,43.49-20.79,98.87-1.59"/><path class="cls-4" d="M138.65,43.69a15.11,15.11,0,0,0-4.8.93l1.56-2-.08-2.53A15.1,15.1,0,0,0,138.65,43.69Z"/><path class="cls-3" d="M149.28,43c10.56-4.31,50.47-17.19,99,.69"/><path class="cls-4" d="M146.55,44.26a15.11,15.11,0,0,1,4.87.44l-1.75-1.83-.18-2.52A15.1,15.1,0,0,1,146.55,44.26Z"/><path class="cls-3" d="M245.53,88.67l-.7.28"/><path class="cls-5" d="M243.4,89.5c-13,4.82-50.36,15.11-95.41-1"/><path class="cls-3" d="M147.26,88.24l-.72-.26"/><path class="cls-4" d="M248.26,87.41a15.11,15.11,0,0,1-4.87-.44l1.75,1.83.18,2.52A15.1,15.1,0,0,1,248.26,87.41Z"/><path class="cls-3" d="M138.65,87.41a3.36,3.36,0,0,1-.66.36"/><path class="cls-6" d="M136.59,88.39c-9.14,3.87-47.71,17.09-95.36,1.11"/><path class="cls-3" d="M40.5,89.24,39.78,89"/><path class="cls-4" d="M36.94,88a15.11,15.11,0,0,0,4.8-.93l-1.56,2,.08,2.53A15.1,15.1,0,0,0,36.94,88Z"/><text class="cls-7" transform="translate(233.8 9.6)"><tspan class="cls-8">Regulatory<tspan x="-9.23" y="11">environment</tspan></tspan><tspan class="cls-9"><tspan x="10.71" y="20.43">Teets </tspan><tspan x="29.48" y="20.43">2014</tspan><tspan x="45.46" y="20.43">;</tspan><tspan x="6.84" y="29.87">Murdie </tspan><tspan x="31.14" y="29.87">2014</tspan></tspan></text><text class="cls-7" transform="translate(6.44 9.6)"><tspan class="cls-8">Donor norms <tspan x="0" y="11">and expectations</tspan></tspan><tspan class="cls-9"><tspan x="0" y="20.43">Bush </tspan><tspan x="17.73" y="20.43">2015</tspan></tspan></text><line class="cls-10" x1="64.48" y1="23.71" x2="87.8" y2="32.63"/><line class="cls-10" x1="234.73" y1="23.81" x2="197.4" y2="32.69"/><text class="cls-7" transform="translate(246.54 103.67)"><tspan class="cls-8">Reverse<tspan x="-15.58" y="11">co-optation</tspan></tspan><tspan class="cls-9"><tspan x="-0.37" y="20.43">Teets </tspan><tspan x="18.41" y="20.43">2014</tspan></tspan></text><line class="cls-10" x1="197.4" y1="100.61" x2="244.8" y2="104.78"/></svg>